<svg xmlns="http://www.w3.org/2000/svg" width="18" height="18" viewBox="0 0 18 18">
  <g transform="translate(9 9) scale(1.24) translate(-9 -9)">
    <path fill="#1c1f21" d="M5.55 3.4c.47 0 .85.38.85.85v1.2h2.05c.41 0 .75.34.75.75s-.34.75-.75.75H6.4v4.07c0 1.18.5 1.73 1.58 1.73h.45c.41 0 .75.34.75.75s-.34.75-.75.75h-.55c-2.02 0-3.18-1.13-3.18-3.13V6.95H3.55a.75.75 0 0 1 0-1.5H4.7v-1.2c0-.47.38-.85.85-.85Z"/>
    <path fill="#1c1f21" d="M10.45 6.1h4.15a.75.75 0 0 1 0 1.5h-4.15a.75.75 0 0 1 0-1.5Zm0 3.15h3.35a.75.75 0 0 1 0 1.5h-3.35a.75.75 0 0 1 0-1.5Zm0 3.15h2.15a.75.75 0 0 1 0 1.5h-2.15a.75.75 0 0 1 0-1.5Z"/>
  </g>
</svg>
