<svg xmlns="http://www.w3.org/2000/svg" width="18" height="18" viewBox="0 0 18 18">
  <path fill="#1c1f21" d="M5.35 3.4c.47 0 .85.38.85.85v1.2h1.95c.41 0 .75.34.75.75s-.34.75-.75.75H6.2v4.07c0 1.18.5 1.73 1.58 1.73h.35c.41 0 .75.34.75.75s-.34.75-.75.75h-.45c-2.02 0-3.18-1.13-3.18-3.13V6.95H3.45a.75.75 0 0 1 0-1.5H4.5v-1.2c0-.47.38-.85.85-.85Z"/>
  <path fill="#1c1f21" d="M10.15 6.1h3.95a.75.75 0 0 1 0 1.5h-3.95a.75.75 0 0 1 0-1.5Zm0 3.15h3.05a.75.75 0 0 1 0 1.5h-3.05a.75.75 0 0 1 0-1.5Zm0 3.15h1.75a.75.75 0 0 1 0 1.5h-1.75a.75.75 0 0 1 0-1.5Z"/>
  <circle cx="14.45" cy="13.25" r="1.55" fill="#1c1f21"/>
</svg>
