<svg xmlns="http://www.w3.org/2000/svg" width="18" height="18" viewBox="0 0 18 18"><path d="M5.493,3.492l-.946-.315-.316-.947c-.102-.306-.609-.306-.711,0l-.316,.947-.946,.315c-.153,.051-.257,.194-.257,.356s.104,.305,.257,.356l.946,.315,.316,.947c.051,.153,.194,.256,.355,.256s.305-.104,.355-.256l.316-.947,.946-.315c.153-.051,.257-.194,.257-.356s-.104-.305-.257-.356Z" fill="#1c1f21"/><circle cx="7.75" cy="1.75" r=".75" fill="#1c1f21"/><path d="M15.151,2.848c-.998-.998-2.739-.998-3.737,0L3.605,10.657c-.862,.863-1.401,3.406-1.594,4.459-.044,.242,.034,.49,.208,.665,.142,.142,.333,.22,.53,.22,.045,0,.09-.004,.134-.012,1.053-.191,3.595-.729,4.46-1.593l7.808-7.809c1.03-1.03,1.03-2.708,0-3.738Z" fill="#1c1f21"/><circle cx="14.25" cy="14.25" r="2.75" fill="#1c1f21"/></svg>
